<svg width="121" height="34" viewBox="0 0 121 34" fill="none" xmlns="http://www.w3.org/2000/svg">
<path d="M0 26.6C13.3333 18.0667 26.6667 18.0667 40 26.6C53.3333 35.1333 66.6667 35.1333 80 26.6C93.3333 18.0667 106.667 18.0667 120 26.6M0 20.2C13.3333 11.6667 26.6667 11.6667 40 20.2C53.3333 28.7333 66.6667 28.7333 80 20.2C93.3333 11.6667 106.667 11.6667 120 20.2M0 13.8C13.3333 5.26666 26.6667 5.26666 40 13.8C53.3333 22.3333 66.6667 22.3333 80 13.8C93.3333 5.26666 106.667 5.26666 120 13.8M0 7.4C13.3333 -1.13334 26.6667 -1.13334 40 7.4C53.3333 15.9333 66.6667 15.9333 80 7.4C93.3333 -1.13334 106.667 -1.13334 120 7.4" stroke="#F19632"/>
</svg>
