<svg width="557" height="240" viewBox="0 0 557 240" fill="none" xmlns="http://www.w3.org/2000/svg">
<path d="M157 80C190.333 101.333 223.667 101.333 257 80C290.333 58.6667 323.667 58.6667 357 80C390.333 101.333 423.667 101.333 457 80C490.333 58.6667 523.667 58.6667 557 80" stroke="#F19632" stroke-width="4"/>
<path d="M157 100C190.333 121.333 223.667 121.333 257 100C290.333 78.6667 323.667 78.6667 357 100C390.333 121.333 423.667 121.333 457 100C490.333 78.6667 523.667 78.6667 557 100" stroke="#F19632" stroke-width="4"/>
<path d="M157 120C190.333 141.333 223.667 141.333 257 120C290.333 98.6667 323.667 98.6667 357 120C390.333 141.333 423.667 141.333 457 120C490.333 98.6667 523.667 98.6667 557 120" stroke="#F19632" stroke-width="4"/>
<path d="M157 140C190.333 161.333 223.667 161.333 257 140C290.333 118.667 323.667 118.667 357 140C390.333 161.333 423.667 161.333 457 140C490.333 118.667 523.667 118.667 557 140" stroke="#F19632" stroke-width="4"/>
<path d="M157 160C190.333 181.333 223.667 181.333 257 160C290.333 138.667 323.667 138.667 357 160C390.333 181.333 423.667 181.333 457 160C490.333 138.667 523.667 138.667 557 160" stroke="#F19632" stroke-width="4"/>
<path d="M86.7297 39.7124C93.9667 32.1733 106.033 32.1733 113.27 39.7124C118.752 45.4226 126.846 47.814 134.55 45.9954C144.645 43.6124 154.783 50.245 156.822 60.4647C158.371 68.2282 163.894 74.7307 171.365 77.4149C181.179 80.9409 186.145 92.0038 182.371 101.766C179.509 109.171 180.688 117.638 185.518 123.953C191.9 132.296 190.205 144.288 181.742 150.486C175.329 155.183 171.856 162.988 172.535 170.883C173.43 181.281 165.567 190.515 155.2 191.103C147.286 191.552 140.173 196.193 136.517 203.211C131.7 212.458 120.117 215.922 111.092 210.761C104.219 206.83 95.7805 206.83 88.9084 210.761C79.8834 215.922 68.3003 212.458 63.4829 203.211C59.8271 196.193 52.7144 191.552 44.8004 191.103C34.4326 190.515 26.5698 181.281 27.4647 170.883C28.1442 162.988 24.6709 155.183 18.2584 150.486C9.79522 144.288 8.09991 132.296 14.4817 123.953C19.3116 117.638 20.4912 109.171 17.6289 101.766C13.855 92.0038 18.821 80.9409 28.6353 77.4149C36.1065 74.7307 41.6294 68.2282 43.178 60.4647C45.2167 50.245 55.3549 43.6124 65.45 45.9954C73.1544 47.814 81.2483 45.4226 86.7297 39.7124Z" fill="#1D222C" stroke="#F19632" stroke-width="4"/>
<circle cx="100.451" cy="123.451" r="64.9673" stroke="#F19632" stroke-width="4"/>
<path d="M66.9673 123.451L92.6381 149.68L139.515 100.57" stroke="#F19632" stroke-width="4"/>
</svg>
