<svg width="120" height="56" viewBox="0 0 120 56" fill="none" xmlns="http://www.w3.org/2000/svg">
<path d="M42 43.5C50.6667 36.1667 59.3333 36.1667 68 43.5C76.6667 50.8333 85.3333 50.8333 94 43.5C102.667 36.1667 111.333 36.1667 120 43.5" stroke="#F19632" stroke-width="2"/>
<path d="M42 36.5C50.6667 29.1667 59.3333 29.1667 68 36.5C76.6667 43.8333 85.3333 43.8333 94 36.5C102.667 29.1667 111.333 29.1667 120 36.5" stroke="#F19632" stroke-width="2"/>
<path d="M42 29.5C50.6667 22.1667 59.3333 22.1667 68 29.5C76.6667 36.8333 85.3333 36.8333 94 29.5C102.667 22.1667 111.333 22.1667 120 29.5" stroke="#F19632" stroke-width="2"/>
<path d="M42 22C50.6667 14 59.3333 14 68 22C76.6667 30 85.3333 30 94 22C102.667 14 111.333 14 120 22" stroke="#F19632" stroke-width="2"/>
<path d="M42 15C50.6667 8.33333 59.3333 8.33333 68 15C76.6667 21.6667 85.3333 21.6667 94 15C102.667 8.33333 111.333 8.33333 120 15" stroke="#F19632" stroke-width="2"/>
<path d="M24.6017 4.98416C26.4549 3.05361 29.5451 3.05361 31.3983 4.98416C33.0408 6.69528 35.4662 7.41194 37.7751 6.86693C40.3542 6.25813 42.9555 7.95364 43.4786 10.5762C43.942 12.8989 45.5939 14.8457 47.8333 15.6503C50.3448 16.5526 51.6226 19.389 50.6535 21.8959C49.7973 24.1109 50.1494 26.6434 51.5956 28.5341C53.2336 30.6754 52.7972 33.7522 50.6277 35.3411C48.7061 36.7485 47.6683 39.0838 47.8715 41.4451C48.1013 44.1148 46.0807 46.4794 43.431 46.6296C41.0587 46.7641 38.9291 48.1545 37.8346 50.2557C36.5996 52.6263 33.6314 53.5107 31.3241 52.191C29.2646 51.0131 26.7354 51.0131 24.6759 52.191C22.3686 53.5107 19.4004 52.6263 18.1654 50.2557C17.0709 48.1545 14.9413 46.7641 12.569 46.6296C9.9193 46.4794 7.89872 44.1148 8.12849 41.4451C8.33172 39.0838 7.29388 36.7485 5.37233 35.3411C3.20281 33.7522 2.76636 30.6754 4.40437 28.5341C5.85057 26.6434 6.20275 24.1109 5.34648 21.8959C4.3774 19.389 5.65516 16.5526 8.16666 15.6503C10.4061 14.8457 12.058 12.8989 12.5214 10.5762C13.0445 7.95364 15.6458 6.25813 18.2249 6.86693C20.5338 7.41194 22.9592 6.69528 24.6017 4.98416Z" fill="#1D222C" stroke="#F19632" stroke-width="2"/>
<circle cx="28.1263" cy="28.1263" r="17.7508" stroke="#F19632" stroke-width="2"/>
<path d="M18.751 28.1263L24.4915 33.9916C25.2827 34.8 26.5864 34.7919 27.3675 33.9736L39.0644 21.7197" stroke="#F19632" stroke-width="2" stroke-linecap="round"/>
</svg>
