<svg width="801" height="82" viewBox="0 0 801 82" fill="none" xmlns="http://www.w3.org/2000/svg">
<path d="M0 17C33.3333 -4.33333 66.6667 -4.33333 100 17C133.333 38.3333 166.667 38.3333 200 17C233.333 -4.33333 266.667 -4.33333 300 17C333.333 38.3333 366.667 38.3333 400 17C433.333 -4.33333 466.667 -4.33333 500 17C533.333 38.3333 566.667 38.3333 600 17C633.333 -4.33333 666.667 -4.33333 700 17C733.333 38.3333 766.667 38.3333 800 17M0 33C33.3333 11.6667 66.6667 11.6667 100 33C133.333 54.3333 166.667 54.3333 200 33C233.333 11.6667 266.667 11.6667 300 33C333.333 54.3333 366.667 54.3333 400 33C433.333 11.6667 466.667 11.6667 500 33C533.333 54.3333 566.667 54.3333 600 33C633.333 11.6667 666.667 11.6667 700 33C733.333 54.3333 766.667 54.3333 800 33M0 49C33.3333 27.6667 66.6667 27.6667 100 49C133.333 70.3333 166.667 70.3333 200 49C233.333 27.6667 266.667 27.6667 300 49C333.333 70.3333 366.667 70.3333 400 49C433.333 27.6667 466.667 27.6667 500 49C533.333 70.3333 566.667 70.3333 600 49C633.333 27.6667 666.667 27.6667 700 49C733.333 70.3333 766.667 70.3333 800 49M0 65C33.3333 43.6667 66.6667 43.6667 100 65C133.333 86.3333 166.667 86.3333 200 65C233.333 43.6667 266.667 43.6667 300 65C333.333 86.3333 366.667 86.3333 400 65C433.333 43.6667 466.667 43.6667 500 65C533.333 86.3333 566.667 86.3333 600 65C633.333 43.6667 666.667 43.6667 700 65C733.333 86.3333 766.667 86.3333 800 65" stroke="#F19632" stroke-width="2"/>
</svg>
